<?xml version="1.0" standalone="no"?>
<!DOCTYPE svg PUBLIC "-//W3C//DTD SVG 20010904//EN"
 "http://www.w3.org/TR/2001/REC-SVG-20010904/DTD/svg10.dtd">
<svg version="1.0" xmlns="http://www.w3.org/2000/svg"
 width="225.000000pt" height="225.000000pt" viewBox="0 0 225.000000 225.000000"
 preserveAspectRatio="xMidYMid meet">
<metadata>
Created by potrace 1.16, written by Peter Selinger 2001-2019
</metadata>
<g transform="translate(0.000000,225.000000) scale(0.100000,-0.100000)"
fill="#000000" stroke="none">
<path d="M108 1980 c-15 -4 -36 -15 -48 -23 -12 -9 -27 -14 -34 -13 -6 2 -8 1
-4 -1 5 -3 1 -14 -7 -26 -23 -34 -18 -85 15 -144 36 -63 38 -99 8 -156 -31
-59 -31 -165 0 -224 12 -23 22 -58 22 -78 0 -20 -10 -55 -22 -78 -31 -59 -31
-165 0 -224 12 -23 22 -58 22 -78 0 -20 -10 -55 -22 -78 -31 -59 -31 -165 0
-224 30 -57 28 -93 -8 -156 -55 -97 -34 -161 64 -202 46 -19 78 -14 158 26 70
36 131 38 214 8 83 -30 209 -30 282 -1 71 29 163 29 234 0 73 -29 199 -29 282
1 76 27 156 27 232 0 83 -30 209 -30 282 -1 73 30 145 29 208 -3 82 -42 108
-47 155 -35 24 7 58 27 76 45 44 44 44 84 -2 175 -19 38 -35 77 -35 85 0 9 11
38 25 65 34 66 34 140 0 220 -31 73 -31 77 0 150 31 73 33 156 6 216 -33 73
-34 97 -7 163 31 73 34 157 7 216 -35 79 -35 92 5 170 44 86 42 128 -7 169
-64 54 -118 54 -223 1 -63 -32 -135 -33 -208 -4 -73 29 -200 29 -282 0 -34
-12 -84 -21 -116 -21 -32 0 -82 9 -116 21 -82 29 -209 29 -282 0 -71 -28 -163
-28 -234 0 -73 30 -200 30 -282 0 -83 -30 -144 -28 -214 8 -67 34 -107 42
-144 31z m1954 -217 c17 -15 18 -48 18 -636 0 -563 -2 -622 -17 -639 -15 -17
-57 -18 -935 -18 -615 0 -926 3 -939 10 -18 10 -19 28 -19 645 0 593 1 635 18
644 11 7 330 10 936 11 842 0 921 -1 938 -17z"/>
<path d="M396 1534 c-9 -24 -8 -31 10 -48 14 -14 92 -16 707 -16 381 0 698 4
705 9 8 5 12 21 10 37 l-3 29 -711 3 c-643 2 -712 1 -718 -14z"/>
<path d="M406 1274 c-9 -8 -16 -21 -16 -27 1 -37 -5 -37 726 -35 l709 3 3 29
c2 16 -2 32 -10 37 -7 5 -324 9 -705 9 -615 0 -693 -2 -707 -16z"/>
<path d="M1508 1061 c-8 -11 -27 -21 -43 -23 -22 -2 -31 -9 -33 -26 -2 -13
-14 -28 -28 -34 -25 -12 -27 -17 -24 -59 0 -14 -6 -31 -15 -39 -14 -12 -14
-15 1 -38 9 -13 14 -35 11 -47 -5 -27 0 -36 28 -51 11 -6 22 -22 25 -35 4 -18
14 -25 35 -27 17 -2 37 -13 46 -24 14 -18 19 -19 39 -8 17 9 29 9 48 1 21 -10
28 -9 47 9 12 11 33 20 48 20 22 0 29 6 33 29 4 18 16 33 31 40 21 10 24 17
20 40 -4 19 -1 33 8 41 8 7 15 20 15 30 0 10 -7 23 -15 30 -9 8 -12 22 -8 41
4 23 1 30 -20 40 -15 7 -27 22 -31 40 -5 24 -10 29 -35 29 -19 0 -35 8 -45 21
-14 20 -18 21 -46 9 -23 -10 -34 -10 -43 -1 -16 16 -34 14 -49 -8z"/>
<path d="M404 1006 c-3 -8 -4 -25 -2 -38 l3 -23 290 0 290 0 3 29 c2 16 -2 32
-10 37 -7 5 -138 9 -291 9 -231 0 -279 -2 -283 -14z"/>
</g>
</svg>
