<?xml version="1.0" standalone="no"?>
<!DOCTYPE svg PUBLIC "-//W3C//DTD SVG 20010904//EN"
 "http://www.w3.org/TR/2001/REC-SVG-20010904/DTD/svg10.dtd">
<svg version="1.0" xmlns="http://www.w3.org/2000/svg"
 width="219.000000pt" height="230.000000pt" viewBox="0 0 219.000000 230.000000"
 preserveAspectRatio="xMidYMid meet">
<metadata>
Created by potrace 1.16, written by Peter Selinger 2001-2019
</metadata>
<g transform="translate(0.000000,230.000000) scale(0.100000,-0.100000)"
fill="#000000" stroke="none">
<path d="M918 2180 c-390 -66 -730 -382 -835 -776 -23 -87 -26 -118 -26 -254
1 -134 4 -168 26 -252 97 -367 387 -659 757 -760 73 -20 108 -23 255 -23 147
0 182 3 255 23 101 28 243 93 329 151 204 139 365 367 428 609 33 128 38 344
9 466 -96 415 -411 725 -824 811 -78 16 -290 19 -374 5z m290 -81 c386 -42
709 -322 814 -704 32 -116 32 -374 0 -490 -38 -139 -112 -277 -211 -393 -40
-47 -48 -53 -74 -48 -41 8 -284 128 -334 165 -38 27 -43 36 -43 70 0 24 8 48
21 65 11 14 52 87 90 162 75 148 82 183 54 264 -10 29 -15 82 -15 164 0 165
-27 242 -111 323 -80 76 -245 116 -381 94 -140 -23 -230 -83 -288 -193 -32
-60 -34 -68 -42 -219 -4 -86 -12 -169 -18 -184 -23 -60 -12 -107 52 -236 34
-68 74 -142 90 -165 23 -32 29 -50 26 -80 -3 -36 -9 -43 -67 -81 -71 -47 -300
-153 -329 -153 -37 0 -151 152 -212 283 -71 152 -85 219 -84 412 0 156 2 177
28 259 100 326 331 559 651 655 130 39 229 47 383 30z m7 -421 c83 -16 143
-60 178 -130 28 -53 30 -65 35 -215 3 -110 9 -164 18 -178 22 -31 17 -80 -12
-114 -14 -16 -36 -58 -50 -91 -25 -61 -54 -112 -93 -160 -16 -19 -21 -40 -21
-89 0 -64 1 -65 45 -106 43 -41 219 -142 320 -185 l50 -21 -70 -45 c-158 -100
-324 -147 -515 -147 -185 -1 -330 36 -476 119 -123 70 -125 62 28 137 148 72
254 144 268 183 18 45 12 126 -11 154 -39 48 -68 99 -93 160 -14 33 -36 75
-50 91 -29 34 -34 83 -12 114 9 14 15 66 18 175 5 177 17 219 83 283 69 67
217 94 360 65z"/>
</g>
</svg>
